<svg width="33" height="83" viewBox="0 0 33 83" fill="none" xmlns="http://www.w3.org/2000/svg">
<path d="M32.368 79.2817C32.5549 79.0785 32.5417 78.7622 32.3385 78.5752L29.0268 75.5284C28.8236 75.3415 28.5073 75.3546 28.3203 75.5579C28.1334 75.7611 28.1466 76.0774 28.3498 76.2644L31.2935 78.9726L28.5853 81.9163C28.3983 82.1195 28.4115 82.4358 28.6147 82.6228C28.8179 82.8098 29.1342 82.7966 29.3212 82.5934L32.368 79.2817ZM31.7118 0.0915461C5.51649 18.5644 -1.8792 38.6522 1.07424 54.0713C4.02261 69.4639 17.28 80.0569 32.0208 79.4427L31.9792 78.4436C17.7561 79.0362 4.91588 68.8117 2.05638 53.8831C-0.798052 38.9809 6.28818 19.2439 32.2881 0.908778L31.7118 0.0915461Z" fill="black"/>
</svg>
