<svg width="40" height="40" viewBox="0 0 40 40" fill="none" xmlns="http://www.w3.org/2000/svg">
<rect width="40" height="40" rx="5" fill="url(#paint0_linear)"/>
<path d="M19.9668 28.3057H12.4917C12.0332 28.3057 11.6611 27.9335 11.6611 27.4751V12.5249C11.6611 12.0664 12.0332 11.6944 12.4917 11.6944H19.9668C20.4261 11.6944 20.7973 11.3231 20.7973 10.8638C20.7973 10.4045 20.4261 10.0332 19.9668 10.0332H12.4917C11.1179 10.0332 10 11.1512 10 12.5249V27.4751C10 28.8488 11.1179 29.9668 12.4917 29.9668H19.9668C20.4261 29.9668 20.7973 29.5955 20.7973 29.1362C20.7973 28.6769 20.4261 28.3057 19.9668 28.3057Z" fill="black"/>
<path d="M29.7525 19.4086L24.7026 14.4252C24.3771 14.103 23.8505 14.1071 23.5282 14.4336C23.206 14.76 23.2093 15.2857 23.5366 15.608L27.1453 19.1694H17.4751C17.0158 19.1694 16.6445 19.5407 16.6445 20C16.6445 20.4593 17.0158 20.8305 17.4751 20.8305H27.1453L23.5366 24.392C23.2093 24.7143 23.2068 25.24 23.5282 25.5664C23.691 25.7309 23.9053 25.8139 24.1196 25.8139C24.3306 25.8139 24.5415 25.7342 24.7026 25.5747L29.7525 20.5913C29.9103 20.4352 30 20.2225 30 19.9999C30 19.7774 29.9111 19.5656 29.7525 19.4086Z" fill="black"/>
<defs>
<linearGradient id="paint0_linear" x1="2" y1="8.24373e-08" x2="24.1787" y2="47.1119" gradientUnits="userSpaceOnUse">
<stop stop-color="#ED6981"/>
<stop offset="1" stop-color="#EB5757"/>
</linearGradient>
</defs>
</svg>
