<svg width="64" height="64" viewBox="0 0 64 64" fill="none" xmlns="http://www.w3.org/2000/svg">
<g clip-path="url(#clip0)">
<path d="M45.4014 46.0752H18.5986C18.0808 46.0752 17.6611 46.4949 17.6611 47.0127C17.6611 47.5304 18.0808 47.9502 18.5986 47.9502H45.4014C45.9193 47.9502 46.3389 47.5304 46.3389 47.0127C46.3389 46.4949 45.9191 46.0752 45.4014 46.0752Z" fill="url(#paint0_linear)"/>
<path d="M46.3389 51.0732C46.3389 50.5555 45.9193 50.1357 45.4014 50.1357H18.5986C18.0808 50.1357 17.6611 50.5555 17.6611 51.0732C17.6611 51.591 18.0808 52.0107 18.5986 52.0107H45.4014C45.9191 52.0107 46.3389 51.591 46.3389 51.0732Z" fill="url(#paint1_linear)"/>
<path d="M22.5195 54.1968C22.0017 54.1968 21.582 54.6165 21.582 55.1343C21.582 55.652 22.0017 56.0718 22.5195 56.0718H41.4807C41.9985 56.0718 42.4182 55.652 42.4182 55.1343C42.4182 54.6165 41.9985 54.1968 41.4807 54.1968H22.5195Z" fill="url(#paint2_linear)"/>
<path d="M46.4135 22.4326L52.0462 20.377C52.5562 20.1909 52.8857 19.7198 52.8857 19.1769C52.8857 18.634 52.5561 18.1631 52.0462 17.977L33.47 11.1975C32.5222 10.8515 31.4779 10.8514 30.5299 11.1975L11.9539 17.9769C11.4439 18.1629 11.1143 18.6339 11.1143 19.1769C11.1143 19.7199 11.4438 20.1909 11.9538 20.377L17.5865 22.4326V33.5137C17.5865 34.2446 17.9089 34.9382 18.4029 35.4044C18.8922 35.8659 19.4347 36.3004 20.0218 36.7066C20.0217 36.7067 20.0215 36.7069 20.0212 36.7071C19.3906 37.3261 19.029 38.1844 19.029 39.0623V39.6932C19.029 39.9714 19.1162 40.236 19.2683 40.4557L18.3572 42.5559C18.1512 43.0309 18.3692 43.583 18.8442 43.789C19.3187 43.995 19.8711 43.7773 20.0773 43.302L20.9358 41.3229C21.0585 41.3622 21.1823 41.396 21.3073 41.4239V43.5344C21.3073 44.0522 21.727 44.4719 22.2448 44.4719C22.7627 44.4719 23.1823 44.0522 23.1823 43.5344V41.4239C23.3073 41.3959 23.4312 41.3622 23.5537 41.3229L24.4123 43.302C24.6187 43.7777 25.1712 43.9949 25.6454 43.789C26.1206 43.583 26.3386 43.0309 26.1324 42.5559L25.2213 40.4557C25.3735 40.236 25.4608 39.9713 25.4608 39.693V39.2092C27.5163 39.7933 29.7454 40.0997 31.9998 40.0997C36.7864 40.0997 42.1501 38.6553 45.5971 35.4041C46.0925 34.9366 46.4132 34.2374 46.4132 33.5134C46.4135 32.2601 46.4135 23.7029 46.4135 22.4326ZM31.1727 12.9589C31.7062 12.7642 32.2938 12.7642 32.8272 12.9589L49.8652 19.177C49.5484 19.2926 33.1199 25.2882 32.8273 25.395C32.2935 25.5897 31.7061 25.5896 31.1727 25.395L24.6243 23.0051L30.0419 20.3292L30.5301 20.5074C31.0041 20.6804 31.5019 20.7669 32.0001 20.7669C32.4982 20.7669 32.9963 20.6804 33.4702 20.5074L34.3348 20.1919C34.862 19.9996 35.2162 19.4935 35.2162 18.9324V18.2418C35.2162 16.5014 33.8009 15.0589 32.0613 15.0263C31.2122 15.0108 30.3972 15.3369 29.7764 15.9463C29.1458 16.5653 28.7842 17.4236 28.7842 18.3015V18.8595C21.9455 22.2372 22.382 22.0129 22.2138 22.1255L14.1349 19.177L31.1727 12.9589ZM30.6588 18.5585V18.3014C30.6588 17.9238 30.8158 17.553 31.0894 17.2843C31.3479 17.0306 31.6768 16.896 32.0258 16.9008C32.7509 16.9144 33.3409 17.5159 33.3409 18.2416V18.5584L32.8272 18.7459C32.2937 18.9406 31.7062 18.9405 31.1728 18.7459L30.6588 18.5585ZM21.3075 30.8601C20.7163 30.4685 20.1736 30.0433 19.6894 29.5866C19.5445 29.45 19.4615 29.258 19.4615 29.06V23.1171L21.3088 23.7914C21.3067 23.912 21.3075 22.98 21.3075 30.8601ZM20.9038 39.3195C20.9038 39.0528 20.8547 38.5162 21.3345 38.0452C21.6087 37.7761 21.9503 37.6561 22.2707 37.6618C23.2332 37.6801 23.5858 38.3604 23.5858 39.3194C22.4595 39.7305 22.2578 39.8137 20.9038 39.3195ZM21.3075 35.3134C20.7706 34.9578 20.278 34.5762 19.8338 34.1723C19.694 34.0451 19.4614 33.8737 19.4614 33.5137V31.8468C20.0302 32.2805 20.6497 32.6803 21.3075 33.0477V35.3134ZM24.779 37.0254C24.3788 36.5111 23.827 36.1217 23.1825 35.9257V33.9556C25.1585 34.7794 27.3871 35.3296 29.7274 35.5423C30.2441 35.5887 30.6992 35.2092 30.7459 34.6936C30.7929 34.1779 30.4129 33.7219 29.8973 33.6751C27.4486 33.4524 25.1441 32.8379 23.1823 31.9116V24.475L30.5298 27.1565C30.9923 27.3252 31.4957 27.416 31.9998 27.416C32.5159 27.4158 33.0199 27.3206 33.4698 27.1565H33.4699L44.5384 23.1171V29.06C44.5384 29.258 44.4554 29.45 44.3105 29.5866C41.954 31.8093 38.2334 33.2996 34.1024 33.6752C33.5868 33.7221 33.2068 34.1781 33.2538 34.6937C33.3005 35.2093 33.7562 35.5896 34.2723 35.5424C38.2479 35.1809 41.9065 33.8532 44.5384 31.847V33.5138C44.5384 33.7198 44.4466 33.9121 44.3105 34.0404C41.1961 36.9781 36.294 38.225 31.9999 38.225C29.4689 38.2248 26.9793 37.8107 24.779 37.0254Z" fill="url(#paint3_linear)"/>
<path d="M11.1824 64H52.8173C54.8797 64 56.5577 62.3221 56.5577 60.2596V34.6874C56.5577 34.1696 56.1381 33.7499 55.6202 33.7499C55.1023 33.7499 54.6827 34.1696 54.6827 34.6874V60.2596C54.6827 61.2883 53.846 62.125 52.8173 62.125H11.1824C10.1538 62.125 9.31689 61.2883 9.31689 60.2596V7.66434H54.6827V30.3124C54.6827 30.8301 55.1023 31.2499 55.6202 31.2499C56.1381 31.2499 56.5577 30.8301 56.5577 30.3124C56.5577 29.4156 56.5577 5.01686 56.5577 3.74036C56.5577 1.67812 54.8801 0 52.8173 0C51.6923 0 11.5549 0 11.1824 0C9.11989 0 7.44189 1.67787 7.44189 3.74036V60.2595C7.44189 62.3221 9.11989 64 11.1824 64ZM54.6827 3.74036V5.78935H16.8061V1.87499H52.8173C53.8456 1.87499 54.6827 2.71149 54.6827 3.74036ZM9.31689 3.74036C9.31689 2.90461 9.86926 2.19549 10.6283 1.95899C10.8034 1.90437 10.9895 1.87499 11.1824 1.87499H14.9311V5.78935H9.31689V3.74036Z" fill="url(#paint4_linear)"/>
</g>
<defs>
<linearGradient id="paint0_linear" x1="19.095" y1="46.0752" x2="19.178" y2="48.7704" gradientUnits="userSpaceOnUse">
<stop stop-color="#F2C94C"/>
<stop offset="1" stop-color="#F5B67A"/>
</linearGradient>
<linearGradient id="paint1_linear" x1="19.095" y1="50.1357" x2="19.178" y2="52.831" gradientUnits="userSpaceOnUse">
<stop stop-color="#F2C94C"/>
<stop offset="1" stop-color="#F5B67A"/>
</linearGradient>
<linearGradient id="paint2_linear" x1="22.6238" y1="54.1968" x2="22.7379" y2="56.8897" gradientUnits="userSpaceOnUse">
<stop stop-color="#F2C94C"/>
<stop offset="1" stop-color="#F5B67A"/>
</linearGradient>
<linearGradient id="paint3_linear" x1="13.2028" y1="10.938" x2="29.1587" y2="53.1571" gradientUnits="userSpaceOnUse">
<stop stop-color="#2F80ED"/>
<stop offset="1" stop-color="#4D55F0"/>
</linearGradient>
<linearGradient id="paint4_linear" x1="9.89768" y1="1.319e-07" x2="50.9408" y2="66.9076" gradientUnits="userSpaceOnUse">
<stop stop-color="#2F80ED"/>
<stop offset="1" stop-color="#4D55F0"/>
</linearGradient>
<clipPath id="clip0">
<rect width="64" height="64" fill="white"/>
</clipPath>
</defs>
</svg>
