<svg width="230" height="230" viewBox="0 0 230 230" fill="none" xmlns="http://www.w3.org/2000/svg">
<path d="M71.9928 180.927C27.5366 156.777 18.2234 96.9599 53.2328 60.4367L88.5799 23.5612C89.9024 22.1815 92.1852 22.4875 93.0979 24.1669L96.0765 29.6488L116.019 4.97369C117.593 3.02715 120.517 2.90363 122.249 4.71019L175.665 60.4367C210.675 96.9599 201.361 156.777 156.905 180.927L130.426 193.788H98.4905L71.9928 180.927Z" fill="#FBE88C"/>
<path d="M65.9524 110.681C65.9524 63.5576 93.559 24.0603 130.701 13.528L122.248 4.71019C120.516 2.90363 117.592 3.02715 116.019 4.97369L96.0764 29.6488L93.0978 24.1669C92.1852 22.4875 89.9024 22.1815 88.5798 23.5612L53.2328 60.4367C18.2234 96.9599 27.5366 156.777 71.9928 180.927L98.4905 193.788H103.559C80.8852 175.868 65.9524 145.337 65.9524 110.681V110.681Z" fill="#FBE372"/>
<path d="M101.75 179.607L78.4912 168.318C61.3685 158.909 49.8338 142.46 46.8259 123.14C43.802 103.717 49.8686 84.4397 63.4706 70.2499L86.4293 46.2984C87.2358 45.4572 88.6274 45.6438 89.1837 46.6676L92.5608 52.8824C93.1294 53.9291 94.5801 54.0617 95.3289 53.1349L117.828 25.2968C118.923 23.9427 120.957 23.8562 122.162 25.1134L165.427 70.2499C179.029 84.4397 185.096 103.718 182.072 123.14C179.064 142.461 167.529 158.911 150.404 168.319L127.164 179.607H101.75Z" fill="#E79098"/>
<path d="M78.4912 168.318L82.6835 170.353C72.169 153.7 65.9524 133.057 65.9524 110.68C65.9524 87.1691 72.8163 65.5669 84.3162 48.5027L63.4701 70.25C49.8686 84.4399 43.8016 103.718 46.8255 123.14C49.8343 142.46 61.369 158.91 78.4912 168.318V168.318Z" fill="#E17983"/>
<path d="M124.811 93.275C126.311 92.5064 128.013 92.0764 129.815 92.0764H151.738C159.615 92.0764 166.001 98.4627 166.001 106.345V114.694C166.001 127.754 161.569 140.428 153.428 150.641L143.553 163.03V220.351C143.553 223.785 140.77 226.569 137.336 226.569H92.1253C88.6915 226.569 85.9078 223.785 85.9078 220.351V154.896L83.1446 151.209C79.1326 145.852 76.9642 139.338 76.9642 132.645V108.298V93.275H124.811Z" fill="#FFE0D1"/>
<path d="M104.708 216.826C101.274 216.826 98.4905 214.244 98.4905 211.058V154.069C98.4905 151.66 97.6643 149.323 96.1501 147.449L95.7274 146.925C91.7154 141.956 89.5469 135.914 89.5469 129.706V107.123V93.2749H76.9637V108.298V132.645C76.9637 139.338 79.1321 145.852 83.1442 151.209L85.9073 154.896V220.351C85.9073 223.785 88.691 226.569 92.1248 226.569H137.335C140.769 226.569 143.553 223.785 143.553 220.351V216.826H104.708Z" fill="#FFD1C2"/>
<path d="M105.58 107.844H106.213C114.731 107.844 121.79 101.491 122.91 93.2754H76.9637V104.191C79.4368 105.618 82.3015 106.438 85.356 106.438H86.4558C88.535 106.438 90.5264 106.059 92.3663 105.366C94.0407 104.736 95.92 104.906 97.4873 105.768C99.8904 107.09 102.648 107.844 105.58 107.844V107.844Z" fill="#FFD1C2"/>
<path d="M124.271 151.177H153.001L153.428 150.641C161.569 140.428 166.001 127.754 166.001 114.694V106.345C166.001 98.4626 159.615 92.0763 151.738 92.0763H129.815C128.013 92.0763 126.311 92.5063 124.811 93.2749H114.855C112.94 96.173 111.91 99.5688 111.91 103.124C111.91 109.185 114.936 114.551 119.557 117.793C114.707 123.625 111.91 131.075 111.91 138.816C111.91 145.643 117.444 151.177 124.271 151.177Z" fill="#FFD1C2"/>
<path d="M135.882 75.9577C135.882 70.4374 131.407 65.9624 125.886 65.9624C120.366 65.9624 115.891 70.4374 115.891 75.9577V96.8093C115.891 102.33 120.366 106.805 125.886 106.805C131.407 106.805 135.882 102.33 135.882 96.8093V75.9577Z" fill="#FFE0D1"/>
<path d="M145.877 68.7196C140.357 68.7196 135.882 73.1946 135.882 78.7149V102.143H155.872V78.7149C155.872 73.1946 151.397 68.7196 145.877 68.7196Z" fill="#FFE0D1"/>
<path d="M151.738 85.2142H144.917C143.083 85.2142 141.596 83.7274 141.596 81.8939V79.0205C141.596 74.3071 144.853 70.3509 149.243 69.2964C148.122 68.8943 146.914 68.6944 145.647 68.7219C140.185 68.8403 135.882 73.4485 135.882 78.912V102.142H138.956H141.597H155.873V85.6232C154.535 85.3565 153.152 85.2142 151.738 85.2142V85.2142Z" fill="#FFD1C2"/>
<path d="M121.483 97.8487V76.9971C121.483 71.8304 125.398 67.5741 130.426 67.0508C129.062 66.3531 127.524 65.9629 125.887 65.9629C120.366 65.9629 115.891 70.4379 115.891 75.9582V96.8098C115.891 102.33 120.366 106.805 125.887 106.805C126.24 106.805 126.589 106.786 126.933 106.75C123.699 105.095 121.483 101.732 121.483 97.8487V97.8487Z" fill="#FFD1C2"/>
<path d="M129.815 85.2142C126.989 85.2142 124.177 85.8899 121.721 87.1479C121.101 87.4608 120.508 87.8218 119.929 88.2052V104.835C121.593 106.072 123.654 106.804 125.887 106.804C131.407 106.804 135.882 102.329 135.882 96.8088V85.2137H129.815V85.2142Z" fill="#FFD1C2"/>
<path d="M134.55 114.168H129.815C123.717 114.168 118.772 109.222 118.772 103.124C118.772 100.073 120.007 97.3098 122.006 95.3106C122.825 94.4917 123.768 93.801 124.811 93.2749C126.311 92.5063 128.013 92.0763 129.815 92.0763H151.738C159.615 92.0763 166.001 98.4626 166.001 106.345V114.694C166.001 127.75 161.573 140.422 153.435 150.633L148.169 157.239H118.772V138.816C118.772 129.767 123.484 121.373 131.211 116.661L134.55 114.625V114.168Z" fill="#FFE0D1"/>
<path d="M106.213 68.7196H105.58C100.059 68.7196 95.5842 73.1946 95.5842 78.7149V90.9866C95.5842 96.5069 100.059 100.982 105.58 100.982H106.213C111.733 100.982 116.208 96.5069 116.208 90.9866V78.7149C116.208 73.1946 111.733 68.7196 106.213 68.7196Z" fill="#FFE0D1"/>
<path d="M102.287 90.5643V78.2927C102.287 74.0784 104.894 70.4726 108.584 69.0028C107.822 68.817 107.031 68.7196 106.213 68.7196H105.58C100.059 68.7196 95.5842 73.1946 95.5842 78.7149V90.9866C95.5842 96.5069 100.059 100.982 105.58 100.982H106.213C107.518 100.982 108.764 100.736 109.908 100.28C105.534 99.2142 102.287 95.2662 102.287 90.5643V90.5643Z" fill="#FFD1C2"/>
<path d="M86.4558 69.9333H85.356C79.8357 69.9333 75.3607 74.4083 75.3607 79.9287V89.5804C75.3607 95.1007 79.8357 99.5757 85.356 99.5757H86.4558C91.9761 99.5757 96.4511 95.1007 96.4511 89.5804V79.9287C96.4511 74.4083 91.9761 69.9333 86.4558 69.9333V69.9333Z" fill="#FFE0D1"/>
<path d="M81.9127 89.6765V80.0247C81.9127 75.3882 85.0697 71.4906 89.3512 70.3611C88.4344 70.0839 87.4627 69.9333 86.4558 69.9333H85.356C79.8357 69.9333 75.3607 74.4083 75.3607 79.9287V89.5804C75.3607 95.1007 79.8357 99.5757 85.356 99.5757H86.4558C87.3396 99.5757 88.1965 99.46 89.0126 99.2445C84.9045 98.0024 81.9127 94.1899 81.9127 89.6765V89.6765Z" fill="#FFD1C2"/>
<path d="M163.21 141.543C164.043 139.841 163.338 137.786 161.636 136.953C159.935 136.121 157.88 136.825 157.046 138.527C155.308 142.079 153.19 145.432 150.751 148.493L140.869 160.891C140.385 161.499 140.121 162.253 140.121 163.03V226.569C140.121 228.464 141.658 230 143.552 230C145.447 230 146.983 228.464 146.983 226.569V164.23L156.117 152.769C158.866 149.32 161.253 145.543 163.21 141.543V141.543Z" fill="black"/>
<path d="M142.324 114.168C142.324 112.273 140.787 110.737 138.893 110.737H129.817C125.619 110.737 122.203 107.321 122.203 103.122C122.203 98.9237 125.619 95.5087 129.817 95.5087H151.737C157.711 95.5087 162.572 100.369 162.572 106.343V114.695C162.572 118.283 162.204 121.916 161.477 125.491C161.099 127.348 162.299 129.16 164.156 129.537C164.386 129.584 164.616 129.606 164.842 129.606C166.44 129.606 167.871 128.484 168.201 126.858C169.019 122.833 169.433 118.741 169.433 114.695V106.343C169.433 99.2915 165.286 93.1916 159.303 90.3498V78.7149C159.303 71.3116 153.28 65.2886 145.876 65.2886C142.519 65.2886 139.448 66.5301 137.092 68.5741C134.688 64.9368 130.563 62.5314 125.886 62.5314C121.074 62.5314 116.847 65.0777 114.476 68.8921C112.148 66.9524 109.156 65.7835 105.896 65.7835C101.556 65.7835 97.6918 67.8554 95.2361 71.0605C92.8183 68.7201 89.5286 67.2754 85.9059 67.2754C78.5027 67.2754 72.4796 73.2984 72.4796 80.7017V88.8072C72.4796 96.2105 78.5027 102.234 85.9059 102.234C89.4856 102.234 92.7401 100.823 95.1496 98.5307C97.6007 101.799 101.506 103.917 105.896 103.917C109.806 103.917 113.33 102.237 115.785 99.5614C115.496 100.701 115.341 101.894 115.341 103.123C115.341 109.501 119.489 114.926 125.229 116.849C119.036 122.372 115.341 130.401 115.341 138.818V141.308C115.341 143.203 116.877 144.74 118.772 144.74C120.666 144.74 122.203 143.203 122.203 141.308V138.818C122.203 131.019 126.339 123.652 132.996 119.592L136.264 117.599H138.892C140.787 117.599 142.324 116.062 142.324 114.168V114.168ZM145.877 72.1506C149.496 72.1506 152.441 75.0954 152.441 78.7149V88.6471H139.313V78.7149C139.313 75.0954 142.257 72.1506 145.877 72.1506ZM85.9059 95.3715C82.2864 95.3715 79.3417 92.4267 79.3417 88.8072V80.7017C79.3417 77.0822 82.2864 74.1374 85.9059 74.1374C89.5254 74.1374 92.4702 77.0822 92.4702 80.7017V88.8072C92.4702 92.4267 89.5254 95.3715 85.9059 95.3715ZM105.896 97.0554C102.277 97.0554 99.3318 94.1107 99.3318 90.4911V79.2099C99.3318 75.5904 102.277 72.6456 105.896 72.6456C109.516 72.6456 112.46 75.5904 112.46 79.2099V90.4911C112.46 94.1111 109.516 97.0554 105.896 97.0554ZM119.322 93.1673V75.9573C119.322 72.3377 122.267 69.393 125.887 69.393C129.506 69.393 132.451 72.3377 132.451 75.9573V88.6466H129.817C125.689 88.6471 121.962 90.3864 119.322 93.1673Z" fill="black"/>
<path d="M85.8913 149.151C82.3482 144.419 80.3966 138.557 80.3966 132.645V108.301C80.3966 106.406 78.8604 104.87 76.9656 104.87C75.0707 104.87 73.5345 106.406 73.5345 108.301V132.645C73.5345 140.03 75.9719 147.352 80.398 153.264L82.4744 156.037V186.518C82.4744 188.413 84.0106 189.949 85.9055 189.949C87.8003 189.949 89.3365 188.413 89.3365 186.518V154.895C89.3365 154.154 89.0963 153.432 88.6517 152.839L85.8913 149.151Z" fill="black"/>
<path d="M85.9059 197.779C84.0111 197.779 82.4749 199.315 82.4749 201.21V226.569C82.4749 228.464 84.0111 230 85.9059 230C87.8008 230 89.337 228.464 89.337 226.569V201.21C89.337 199.315 87.8008 197.779 85.9059 197.779Z" fill="black"/>
<path d="M60.6635 67.5594C56.1767 72.2407 52.4144 77.4966 49.4816 83.1812C46.3945 89.1635 44.2545 95.559 43.1204 102.189C42.8011 104.057 44.0559 105.83 45.9238 106.149C46.1196 106.183 46.3145 106.199 46.5062 106.199C48.1471 106.199 49.5982 105.018 49.8841 103.346C50.8997 97.4099 52.8161 91.6837 55.5797 86.3272C58.2101 81.2291 61.5872 76.5121 65.6175 72.3075C66.9286 70.9397 66.8829 68.7676 65.5146 67.4565C64.1467 66.1458 61.9747 66.1911 60.6635 67.5594V67.5594Z" fill="black"/>
<path d="M115.075 33.4339L120.081 27.2392L143.4 51.5667C144.074 52.2698 144.975 52.6234 145.878 52.6234C146.731 52.6234 147.586 52.3069 148.252 51.6696C149.619 50.358 149.666 48.1864 148.355 46.8186L122.339 19.6781C121.657 18.9663 120.704 18.5843 119.718 18.6246C118.733 18.6662 117.814 19.1292 117.194 19.8959L109.739 29.1208C108.548 30.5948 108.777 32.755 110.251 33.9458C111.725 35.1366 113.884 34.9078 115.075 33.4339V33.4339Z" fill="black"/>
<path d="M188.049 48.5652L176.366 36.3772C175.055 35.0094 172.883 34.9632 171.515 36.2748C170.148 37.5859 170.101 39.7579 171.413 41.1258L183.096 53.3138C202.022 73.0578 210.463 99.8807 206.255 126.905C205.964 128.778 207.245 130.532 209.118 130.823C209.297 130.851 209.474 130.864 209.65 130.864C211.312 130.864 212.772 129.654 213.036 127.961C217.575 98.8052 208.468 69.8665 188.049 48.5652V48.5652Z" fill="black"/>
<path d="M22.6426 126.905C22.3512 125.033 20.5968 123.75 18.7248 124.043C16.8524 124.334 15.571 126.088 15.8624 127.96C19.1223 148.901 28.9186 167.54 44.1909 181.862C44.8528 182.482 45.696 182.79 46.5373 182.79C47.4522 182.79 48.3653 182.426 49.0405 181.706C50.3366 180.324 50.267 178.152 48.885 176.856C34.7395 163.591 25.6651 146.318 22.6426 126.905Z" fill="black"/>
<path d="M124.726 2.33585C123.219 0.763519 121.106 -0.0828044 118.93 0.00640261C116.754 0.0983545 114.72 1.12263 113.351 2.81665L96.6382 23.4953L96.1126 22.5287C95.1633 20.7811 93.4194 19.5803 91.4487 19.3163C89.4783 19.0514 87.4792 19.7514 86.1031 21.1869L68.9451 39.0864C67.634 40.4542 67.6798 42.6263 69.0481 43.9374C70.4159 45.2485 72.588 45.2028 73.8991 43.8345L90.4806 26.5361L93.0622 31.2865C93.6093 32.2939 94.6235 32.9609 95.7649 33.0652C96.9086 33.1699 98.0248 32.6964 98.7453 31.8053L118.688 7.13016C118.858 6.92018 119.071 6.86848 119.22 6.86208C119.368 6.85613 119.585 6.88953 119.772 7.08395L173.188 62.8109C189.129 79.4405 196.238 102.032 192.695 124.794C189.151 147.555 175.509 166.916 155.267 177.913C153.602 178.818 152.986 180.9 153.89 182.565C154.512 183.71 155.691 184.359 156.908 184.359C157.462 184.359 158.023 184.225 158.543 183.942C180.68 171.916 195.599 150.742 199.475 125.85C203.351 100.957 195.576 76.2496 178.142 58.0623L124.726 2.33585Z" fill="black"/>
<path d="M73.6306 177.912C53.3888 166.916 39.7475 147.555 36.2034 124.794C32.6594 102.032 39.7694 79.4405 55.71 62.811L63.7684 54.404C65.0795 53.0362 65.0338 50.8641 63.6655 49.553C62.2976 48.2419 60.1255 48.2876 58.8144 49.6559L50.7565 58.0629C33.3236 76.2497 25.548 100.957 29.4237 125.85C33.2994 150.743 48.2185 171.917 70.3555 183.943C70.8761 184.225 71.437 184.359 71.9901 184.359C73.2074 184.359 74.3863 183.71 75.008 182.566C75.912 180.9 75.2958 178.817 73.6306 177.912V177.912Z" fill="black"/>
</svg>
