<svg width="40" height="40" viewBox="0 0 40 40" fill="none" xmlns="http://www.w3.org/2000/svg">
<circle cx="20" cy="20" r="20" fill="url(#paint0_linear)"/>
<g clip-path="url(#clip0)">
<path d="M20.0013 10C17.1442 10 14.8086 12.3356 14.8086 15.1928C14.8086 18.0499 17.1442 20.3855 20.0013 20.3855C22.8585 20.3855 25.1941 18.0499 25.1941 15.1928C25.1941 12.3356 22.8585 10 20.0013 10Z" fill="white"/>
<path d="M28.913 24.5351C28.7769 24.195 28.5955 23.8776 28.3915 23.5828C27.3484 22.0408 25.7384 21.0204 23.9244 20.771C23.6976 20.7483 23.4482 20.7936 23.2668 20.9297C22.3144 21.6326 21.1806 21.9954 20.0014 21.9954C18.8223 21.9954 17.6885 21.6326 16.7361 20.9297C16.5547 20.7936 16.3053 20.7256 16.0785 20.771C14.2645 21.0204 12.6318 22.0408 11.6114 23.5828C11.4073 23.8776 11.2259 24.2177 11.0899 24.5351C11.0219 24.6712 11.0445 24.8299 11.1126 24.966C11.294 25.2835 11.5207 25.6009 11.7248 25.873C12.0422 26.3039 12.3824 26.6894 12.7679 27.0522C13.0853 27.3696 13.4481 27.6644 13.811 27.9592C15.6024 29.2971 17.7566 30 19.9788 30C22.201 30 24.3552 29.297 26.1466 27.9592C26.5094 27.6871 26.8722 27.3696 27.1897 27.0522C27.5525 26.6894 27.9153 26.3039 28.2328 25.873C28.4595 25.5782 28.6636 25.2835 28.845 24.966C28.9583 24.8299 28.981 24.6712 28.913 24.5351Z" fill="white"/>
</g>
<defs>
<linearGradient id="paint0_linear" x1="2" y1="8.24373e-08" x2="24.1787" y2="47.1119" gradientUnits="userSpaceOnUse">
<stop stop-color="#F2C94C"/>
<stop offset="1" stop-color="#F5B67A"/>
</linearGradient>
<clipPath id="clip0">
<rect width="20" height="20" fill="white" transform="translate(10 10)"/>
</clipPath>
</defs>
</svg>
