<svg width="182" height="182" viewBox="0 0 182 182" fill="none" xmlns="http://www.w3.org/2000/svg">
<circle cx="91" cy="91" r="91" fill="#F2F2F2"/>
<path d="M40.6251 68.4782C40.1494 68.002 39.4893 67.7285 38.8164 67.7285C38.1435 67.7285 37.4836 68.0023 37.0075 68.4782C36.5313 68.9541 36.2578 69.6142 36.2578 70.2871C36.2578 70.96 36.5313 71.6201 37.0075 72.0958C37.4834 72.5719 38.1435 72.8457 38.8164 72.8457C39.4893 72.8457 40.1494 72.5719 40.6251 72.0958C41.1012 71.6201 41.375 70.96 41.375 70.2871C41.375 69.6142 41.1012 68.9541 40.6251 68.4782Z" fill="url(#paint0_linear)"/>
<path d="M137.066 25H85.2976C83.8848 25 82.739 26.1457 82.739 27.5586C82.739 28.9714 83.8848 30.1172 85.2976 30.1172H137.066C138.477 30.1172 139.625 31.265 139.625 32.6758V148.324C139.625 149.735 138.477 150.883 137.066 150.883H43.9336C42.5228 150.883 41.375 149.735 41.375 148.324V79.8391C41.375 78.4263 40.2293 77.2805 38.8164 77.2805C37.4036 77.2805 36.2578 78.4263 36.2578 79.8391V148.324C36.2578 152.557 39.7012 156 43.9336 156H137.066C141.299 156 144.742 152.557 144.742 148.324V32.6758C144.742 28.4434 141.299 25 137.066 25Z" fill="url(#paint1_linear)"/>
<path d="M90.5 35.2344C88.7591 35.2344 87.0096 35.3674 85.2999 35.6294C83.9032 35.8438 82.9445 37.1495 83.1586 38.5462C83.3728 39.943 84.6792 40.9004 86.0754 40.6875C87.5295 40.4644 89.0181 40.3516 90.5 40.3516C106.442 40.3516 119.412 53.3216 119.412 69.2639C119.412 76.3436 116.853 82.8355 112.613 87.8675C110.737 84.6411 108.174 81.8581 105.064 79.6994C103.248 78.4396 101.298 77.434 99.2563 76.6897C101.587 74.4118 103.037 71.2374 103.037 67.729V65.2344C103.037 58.3211 97.4131 52.697 90.5 52.697C83.5869 52.697 77.9629 58.3211 77.9629 65.2344V67.729C77.9629 71.2374 79.4131 74.4118 81.7437 76.6897C79.7022 77.434 77.7518 78.4396 75.9362 79.6994C72.8109 81.8686 70.238 84.6672 68.3595 87.913C65.1287 84.0738 62.8705 79.3517 61.987 74.0838C61.7534 72.6907 60.4329 71.7506 59.0406 71.9837C57.6469 72.2173 56.7066 73.5365 56.9402 74.9302C58.2558 82.7748 62.3284 89.9553 68.4078 95.1485C74.5564 100.401 82.4023 103.294 90.4997 103.294C109.264 103.294 124.529 88.0281 124.529 69.2642C124.529 50.5002 109.264 35.2344 90.5 35.2344ZM83.0801 65.2341C83.0801 61.1427 86.4088 57.814 90.5 57.814C94.5912 57.814 97.9199 61.1427 97.9199 65.2341V67.7288C97.9199 71.82 94.5912 75.1487 90.5 75.1487C86.4088 75.1487 83.0801 71.82 83.0801 67.7288V65.2341ZM90.5 98.1763C83.5729 98.1763 77.1687 95.7574 72.1564 91.6565C75.5921 84.6838 82.6157 80.2659 90.5 80.2659C98.3679 80.2659 105.378 84.6656 108.822 91.613C103.831 95.7121 97.4476 98.1763 90.5 98.1763Z" fill="url(#paint2_linear)"/>
<path d="M114.13 126.833H77.7984C76.3855 126.833 75.2398 127.978 75.2398 129.391C75.2398 130.804 76.3855 131.95 77.7984 131.95H114.13C115.544 131.95 116.689 130.804 116.689 129.391C116.689 127.978 115.543 126.833 114.13 126.833Z" fill="#FCD690"/>
<path d="M68.6776 113.254C68.2017 112.777 67.5416 112.504 66.8687 112.504C66.1958 112.504 65.5357 112.778 65.0598 113.254C64.5839 113.729 64.3101 114.39 64.3101 115.062C64.3101 115.738 64.5841 116.396 65.0598 116.871C65.5357 117.347 66.1958 117.621 66.8687 117.621C67.5416 117.621 68.2017 117.347 68.6776 116.871C69.1561 116.396 69.4273 115.735 69.4273 115.062C69.4273 114.39 69.1561 113.729 68.6776 113.254Z" fill="#FCD690"/>
<path d="M68.6776 127.582C68.2017 127.106 67.5442 126.832 66.8687 126.832C66.1958 126.832 65.5357 127.106 65.0598 127.582C64.5839 128.058 64.3101 128.718 64.3101 129.391C64.3101 130.066 64.5841 130.724 65.0598 131.199C65.5357 131.675 66.1958 131.949 66.8687 131.949C67.5416 131.949 68.2017 131.675 68.6776 131.199C69.1561 130.724 69.4273 130.066 69.4273 129.391C69.4273 128.718 69.1561 128.058 68.6776 127.582Z" fill="#FCD690"/>
<path d="M114.13 112.504H77.7984C76.3855 112.504 75.2398 113.65 75.2398 115.063C75.2398 116.476 76.3855 117.622 77.7984 117.622H114.13C115.544 117.622 116.689 116.476 116.689 115.063C116.689 113.65 115.543 112.504 114.13 112.504Z" fill="#FCD690"/>
<path d="M66.3535 39.745C65.3539 38.7461 63.7343 38.7461 62.7349 39.745L54.4026 48.0773L51.5551 45.2299C50.5555 44.231 48.9359 44.231 47.9365 45.2299C46.9374 46.2293 46.9374 47.8494 47.9365 48.8485L52.5931 53.5051C53.0928 54.0046 53.7473 54.2545 54.4023 54.2545C55.0573 54.2545 55.7118 54.0046 56.2117 53.5054L66.3535 43.3636C67.3526 42.3642 67.3526 40.7441 66.3535 39.745Z" fill="#FCD690"/>
<path d="M57.2383 25C45.6696 25 36.2578 34.4118 36.2578 45.9805C36.2578 57.5491 45.6696 66.9609 57.2383 66.9609C68.807 66.9609 78.2188 57.5491 78.2188 45.9805C78.2188 34.4118 68.807 25 57.2383 25ZM57.2383 61.8438C48.4912 61.8438 41.375 54.7275 41.375 45.9805C41.375 37.2334 48.4912 30.1172 57.2383 30.1172C65.9853 30.1172 73.1016 37.2334 73.1016 45.9805C73.1016 54.7275 65.9853 61.8438 57.2383 61.8438Z" fill="url(#paint3_linear)"/>
<defs>
<linearGradient id="paint0_linear" x1="36.5137" y1="67.7285" x2="39.351" y2="73.7555" gradientUnits="userSpaceOnUse">
<stop stop-color="#2F80ED"/>
<stop offset="1" stop-color="#4D55F0"/>
</linearGradient>
<linearGradient id="paint1_linear" x1="41.682" y1="25" x2="122.662" y2="167.451" gradientUnits="userSpaceOnUse">
<stop stop-color="#2F80ED"/>
<stop offset="1" stop-color="#4D55F0"/>
</linearGradient>
<linearGradient id="paint2_linear" x1="60.2858" y1="35.2344" x2="98.1765" y2="115.207" gradientUnits="userSpaceOnUse">
<stop stop-color="#2F80ED"/>
<stop offset="1" stop-color="#4D55F0"/>
</linearGradient>
<linearGradient id="paint3_linear" x1="38.3559" y1="25" x2="61.6219" y2="74.4215" gradientUnits="userSpaceOnUse">
<stop stop-color="#2F80ED"/>
<stop offset="1" stop-color="#4D55F0"/>
</linearGradient>
</defs>
</svg>
