<svg width="182" height="182" viewBox="0 0 182 182" fill="none" xmlns="http://www.w3.org/2000/svg">
<circle cx="91" cy="91" r="91" fill="#F2F2F2"/>
<path d="M156.263 86.4148C155.676 85.828 154.833 85.5737 154.02 85.7372L132.644 90.0392C131.748 90.2198 131.023 90.8786 130.759 91.7534C130.494 92.6284 130.733 93.5781 131.379 94.2247L134.271 97.1167L122.921 108.467L114.134 99.6803C113.669 99.2153 113.038 98.9539 112.38 98.9539C111.723 98.9539 111.092 99.2153 110.627 99.6803L99.8447 110.462L103.889 95.9304C104.872 92.3977 104.164 88.6972 101.946 85.7771C100.587 83.9888 98.7934 82.6703 96.7655 81.9148L99.9985 72.6793C100.891 72.7576 101.781 72.7976 102.66 72.7976C109.822 72.7976 116.805 70.2731 122.323 65.6898L122.914 65.199C125.823 62.782 126.32 58.5816 124.047 55.637C122.893 54.1436 121.227 53.2071 119.355 53.0002C117.481 52.7931 115.651 53.3428 114.201 54.5469L113.53 55.1047C112.541 55.9265 111.459 56.6361 110.314 57.2132C106.49 59.1424 101.714 58.2832 98.5401 55.1425C103.156 53.7126 106.519 49.4033 106.519 44.3232C106.519 38.0796 101.44 33 95.1957 33C88.9516 33 83.872 38.0796 83.872 44.3235C83.872 46.8082 84.6783 49.1069 86.0402 50.9761C83.4642 51.5307 81.1459 52.8589 79.372 54.7367C79.2686 54.8275 79.1694 54.9257 79.0796 55.0363C74.7071 60.4071 68.8779 64.2595 62.2226 66.1765C60.4207 66.6958 58.9945 67.8923 58.1386 69.4093L53.055 64.3257C50.8307 62.1016 47.212 62.1019 44.9874 64.3257L38.3345 70.9788L31.6817 77.6316C30.604 78.7091 30.0107 80.1414 30.0107 81.6656C30.0107 83.1895 30.6043 84.6218 31.6814 85.6995L50.012 104.03C51.0896 105.107 52.522 105.701 54.0459 105.701C55.57 105.701 57.0024 105.107 58.0798 104.03L64.9683 97.1415L61.702 105.706C61.2139 106.986 61.8558 108.42 63.1356 108.908C63.4265 109.019 63.7252 109.071 64.0191 109.071C65.0181 109.071 65.9599 108.463 66.3372 107.474L74.472 86.1435H90.001H92.6854C94.7884 86.1435 96.7238 87.1038 97.9959 88.7783C99.2681 90.4527 99.6743 92.5748 99.1103 94.6005L93.4744 114.851C93.2209 115.762 92.3831 116.399 91.4371 116.399C90.5883 116.399 90.065 115.934 89.8286 115.657C89.5923 115.38 89.2153 114.79 89.3484 113.952L92.3474 95.0988C92.4614 94.3817 92.2556 93.651 91.7843 93.0989C91.3131 92.5468 90.6236 92.2288 89.8978 92.2288H84.0176C83.0823 92.2288 82.2263 92.7549 81.8042 93.5895C81.6593 93.8757 67.2685 122.33 62.4191 131.944C61.9337 132.907 60.8783 133.457 59.7962 133.308L59.6786 133.293C58.9402 133.193 58.2988 132.768 57.9181 132.128C57.5374 131.487 57.4716 130.72 57.7373 130.024L59.2656 126.017C59.7537 124.737 59.1118 123.304 57.832 122.816C56.5524 122.328 55.1191 122.97 54.6307 124.249L53.1024 128.257C52.2941 130.376 52.495 132.71 53.6535 134.661C54.812 136.611 56.7658 137.904 59.0119 138.209L59.1295 138.224C59.4695 138.271 59.8083 138.293 60.1449 138.293C62.9531 138.293 65.5648 136.724 66.8483 134.178C71.0842 125.78 82.6041 103 85.5427 97.1894H86.9919L84.4496 113.173C84.124 115.221 84.7093 117.3 86.0559 118.877C86.922 119.892 88.0436 120.626 89.2852 121.022L61.6556 148.652C61.1906 149.117 60.9291 149.748 60.9291 150.406C60.9291 151.064 61.1906 151.695 61.6556 152.16L68.7698 159.274C69.2542 159.758 69.8889 160 70.5236 160C71.1583 160 71.793 159.758 72.2774 159.274L85.9539 145.597C86.9225 144.628 86.9225 143.058 85.9539 142.089C84.9851 141.121 83.4151 141.121 82.4461 142.089L70.5236 154.012L66.9173 150.406L112.381 104.942L121.167 113.728C121.633 114.193 122.263 114.455 122.921 114.455C123.579 114.455 124.21 114.193 124.675 113.728L139.533 98.8703C140.501 97.9017 140.501 96.3312 139.533 95.3624L138.159 93.9888L151.342 91.3359L148.689 104.518L146.647 102.477C145.678 101.509 144.108 101.509 143.139 102.477L122.921 122.695L114.134 113.908C113.166 112.94 111.596 112.94 110.627 113.908L96.4763 128.059C95.5077 129.027 95.5077 130.598 96.4763 131.567C97.4451 132.535 99.0151 132.535 99.9841 131.567L112.38 119.17L121.167 127.957C122.136 128.925 123.706 128.925 124.675 127.957L144.893 107.739L148.453 111.299C149.1 111.945 150.05 112.184 150.924 111.919C151.799 111.655 152.458 110.931 152.639 110.034L156.941 88.658C157.104 87.8442 156.85 87.0021 156.263 86.4148ZM95.1957 37.9606C98.7043 37.9606 101.559 40.8151 101.559 44.3235C101.559 47.8321 98.7041 50.6866 95.1957 50.6866C91.6871 50.6866 88.8325 47.8321 88.8325 44.3235C88.8325 40.8151 91.6871 37.9606 95.1957 37.9606ZM70.6528 81.9235L67.6343 78.905C69.0679 78.4372 70.476 77.9022 71.8545 77.3037L70.6528 81.9235ZM62.2821 73.3199C61.989 72.3025 62.5785 71.2365 63.5959 70.9433C67.6733 69.7687 71.4763 67.9551 74.9025 65.5867L73.5019 70.9713C70.7136 72.5121 67.745 73.7443 64.658 74.6335C64.6007 74.6499 64.5407 74.6642 64.4814 74.6756C64.0238 74.7627 63.5659 74.6717 63.1815 74.4524L62.455 73.7259C62.3833 73.5992 62.3238 73.4643 62.2821 73.3199ZM48.4948 67.8333C48.6399 67.6882 48.8306 67.6158 49.0211 67.6158C49.2116 67.6158 49.4023 67.6882 49.5471 67.8333L58.5883 76.8744C59.0077 77.4471 59.5077 77.9464 60.071 78.3571L67.8779 86.1641C68.1681 86.454 68.1681 86.9262 67.8779 87.2162L62.9789 92.1152L57.5304 86.6668L58.5682 85.6291C59.5367 84.6605 59.5367 83.09 58.5682 82.1212L52.9851 76.5381C52.0163 75.5698 50.4462 75.5698 49.4772 76.5381L48.4395 77.5758L43.5957 72.7321L48.4948 67.8333ZM51.8898 85.2922C51.6524 85.5296 51.3754 85.5653 51.2313 85.5653C51.0874 85.5653 50.8104 85.5296 50.573 85.2925V85.2922L49.8143 84.5338C49.5772 84.2964 49.5414 84.0194 49.5414 83.8755C49.5414 83.7314 49.5772 83.4543 49.8145 83.217L51.2313 81.8003L53.3065 83.8755L51.8898 85.2922ZM54.5719 100.522C54.3916 100.702 54.1865 100.74 54.0459 100.74C53.9055 100.74 53.6999 100.702 53.5198 100.522L35.1893 82.1916C35.009 82.0113 34.9713 81.806 34.9713 81.6656C34.9713 81.5249 35.009 81.3196 35.1893 81.1395L40.0881 76.2405L45.1637 81.3159C44.783 82.1041 44.5809 82.9742 44.5809 83.8755C44.5809 85.4495 45.194 86.929 46.3067 88.0416L47.0651 88.7998V88.8001C48.1778 89.9128 49.6575 90.5259 51.2313 90.5259C52.1326 90.5259 53.0027 90.324 53.7909 89.943L59.4712 95.6233L54.5719 100.522ZM90.0008 81.1829H75.9713L81.0665 61.5954C81.9778 58.0932 85.1414 55.6474 88.7601 55.6474C90.9956 55.6474 93.0634 56.5488 94.5826 58.1855C99.2425 63.2066 106.631 64.628 112.549 61.6425C114.026 60.8972 115.423 59.9817 116.7 58.9207L117.372 58.3628C117.776 58.0265 118.287 57.8722 118.81 57.9313C119.333 57.9888 119.798 58.2507 120.121 58.6692C120.744 59.476 120.575 60.6938 119.745 61.3836L119.154 61.8744C114.525 65.7199 108.667 67.8375 102.661 67.8375C101.356 67.8375 100.023 67.7331 98.6979 67.527C97.515 67.3415 96.3709 68.029 95.9755 69.1583L91.766 81.1829H90.0008Z" fill="url(#paint0_linear)"/>
<path d="M91.2619 134.394C90.6096 134.394 89.9697 134.659 89.5083 135.121C89.047 135.582 88.7816 136.222 88.7816 136.874C88.7816 137.529 89.0468 138.166 89.5083 138.627C89.9697 139.091 90.6096 139.354 91.2619 139.354C91.9142 139.354 92.5541 139.091 93.0152 138.627C93.4765 138.166 93.7422 137.529 93.7422 136.874C93.7422 136.222 93.4768 135.582 93.0152 135.121C92.5541 134.659 91.9142 134.394 91.2619 134.394Z" fill="url(#paint1_linear)"/>
<path d="M60.4791 118.356C61.1314 118.356 61.7713 118.091 62.2326 117.629C62.6937 117.168 62.9593 116.528 62.9593 115.876C62.9593 115.224 62.6939 114.584 62.2326 114.122C61.7688 113.661 61.1314 113.396 60.4791 113.396C59.8267 113.396 59.1868 113.661 58.723 114.122C58.2619 114.584 57.9988 115.224 57.9988 115.876C57.9988 116.528 58.2619 117.168 58.723 117.629C59.1868 118.091 59.8243 118.356 60.4791 118.356Z" fill="url(#paint2_linear)"/>
<defs>
<linearGradient id="paint0_linear" x1="36.3597" y1="33" x2="106.785" y2="182.571" gradientUnits="userSpaceOnUse">
<stop stop-color="#2F80ED"/>
<stop offset="1" stop-color="#4D55F0"/>
</linearGradient>
<linearGradient id="paint1_linear" x1="89.0296" y1="134.394" x2="91.7801" y2="140.236" gradientUnits="userSpaceOnUse">
<stop stop-color="#F2C94C"/>
<stop offset="1" stop-color="#F5B67A"/>
</linearGradient>
<linearGradient id="paint2_linear" x1="58.2468" y1="113.396" x2="60.9973" y2="119.238" gradientUnits="userSpaceOnUse">
<stop stop-color="#F2C94C"/>
<stop offset="1" stop-color="#F5B67A"/>
</linearGradient>
</defs>
</svg>
