<svg width="182" height="182" viewBox="0 0 182 182" fill="none" xmlns="http://www.w3.org/2000/svg">
<circle cx="91" cy="91" r="91" fill="#F2F2F2"/>
<g clip-path="url(#clip0)">
<path d="M132.949 96.7838C132.939 92.77 131.993 88.8253 130.19 85.2443L134.332 81.1021C137.437 77.9967 137.437 72.9434 134.332 69.8378C132.783 68.2888 130.75 67.5128 128.715 67.5091C128.712 65.3857 127.884 63.39 126.382 61.8882C124.832 60.3385 122.797 59.5623 120.761 59.5594C120.759 57.5235 119.982 55.4884 118.432 53.9385C116.932 52.4379 114.937 51.6098 112.815 51.6061C112.811 49.4843 111.984 47.4898 110.483 45.9889C108.978 44.4845 106.978 43.656 104.851 43.656C102.723 43.656 100.723 44.4845 99.2188 45.9889L91.0027 54.205L86.4311 49.6332C84.9267 48.1287 82.9265 47.3002 80.7989 47.3002C78.6713 47.3002 76.6712 48.1287 75.167 49.6332C73.6652 51.135 72.8374 53.1307 72.8343 55.2541C70.7997 55.2578 68.7661 56.0338 67.2172 57.5828C65.7163 59.0837 64.8885 61.0779 64.8845 63.1999C62.7627 63.2039 60.7682 64.0317 59.2673 65.5326C56.7028 68.0971 56.2585 71.9888 57.9293 75.0162C56.7785 75.3923 55.6964 76.0348 54.7833 76.9479C51.6779 80.0535 51.6779 85.1065 54.7833 88.2122L58.1009 91.5297L31.744 117.887C30.8288 118.802 30.8288 120.286 31.744 121.201C32.2018 121.659 32.8015 121.888 33.4013 121.888C34.001 121.888 34.601 121.659 35.0585 121.201L52.9255 103.334L69.6626 120.071L42.8544 146.88C41.9391 147.795 41.9391 149.279 42.8544 150.194C43.3121 150.652 43.9118 150.881 44.5116 150.881C45.1113 150.881 45.7113 150.652 46.1688 150.194L82.4034 113.96C83.0709 113.292 83.8307 112.751 84.6529 112.344L90.3237 116.08C94.0744 118.55 98.6472 119.515 103.056 118.801L134.569 150.314C135.026 150.771 135.626 151 136.226 151C136.826 151 137.426 150.771 137.883 150.314C138.798 149.399 138.798 147.915 137.883 146.999L119.599 128.715L121.809 126.505C122.725 125.589 122.725 124.105 121.809 123.19C120.894 122.275 119.41 122.275 118.495 123.19L116.284 125.4L111.109 120.225L130.435 100.899L135.61 106.074L133.405 108.28C132.49 109.195 132.49 110.679 133.405 111.595C133.862 112.052 134.462 112.281 135.062 112.281C135.662 112.281 136.262 112.052 136.719 111.595L138.925 109.389L146.998 117.462C147.455 117.92 148.055 118.149 148.655 118.149C149.255 118.149 149.855 117.92 150.312 117.462C151.227 116.547 151.227 115.063 150.312 114.147L132.949 96.7838ZM102.533 49.3034C103.152 48.6844 103.975 48.3434 104.851 48.3434C105.726 48.3434 106.549 48.6844 107.168 49.3034C107.787 49.9224 108.128 50.7455 108.128 51.6209C108.128 52.4965 107.787 53.3196 107.168 53.9385L102.018 59.0888C101.103 60.004 101.103 61.4881 102.018 62.4035C102.933 63.319 104.417 63.3188 105.333 62.4035L110.483 57.2532C111.102 56.634 111.925 56.2933 112.801 56.2933C113.676 56.2933 114.499 56.6343 115.118 57.2532C116.396 58.5313 116.396 60.6104 115.118 61.8884L107.253 69.7529C106.338 70.6681 106.338 72.1522 107.253 73.0676C107.711 73.5254 108.311 73.7541 108.911 73.7541C109.51 73.7541 110.11 73.5254 110.568 73.0676L118.432 65.2031C119.051 64.5839 119.875 64.2431 120.75 64.2431C121.626 64.2431 122.449 64.5841 123.068 65.2031C123.687 65.8221 124.028 66.6452 124.028 67.5205C124.028 68.3959 123.687 69.219 123.068 69.838L115.203 77.7025C114.288 78.6178 114.288 80.1018 115.203 81.0172C115.661 81.475 116.261 81.7037 116.86 81.7037C117.46 81.7037 118.06 81.475 118.518 81.0172L126.382 73.1527C127.66 71.8747 129.739 71.8749 131.017 73.1527C132.295 74.4307 132.295 76.5101 131.017 77.7878L111.645 97.16C105.443 103.363 97.1959 106.779 88.4239 106.779C86.0486 106.779 83.77 107.404 81.7727 108.573L68.2071 95.0073C69.251 94.6131 70.2091 93.9997 71.0219 93.1869C72.5238 91.6851 73.3516 89.6894 73.3546 87.566C75.3892 87.5623 77.4228 86.786 78.9718 85.2371C80.5207 83.6881 81.2967 81.6547 81.3005 79.6199C83.4239 79.6171 85.4198 78.7891 86.9214 77.2872C88.4703 75.7383 89.2463 73.7049 89.2501 71.6701C91.3735 71.6673 93.3691 70.8392 94.8708 69.3376C96.3752 67.8332 97.2037 65.8331 97.2037 63.7055C97.2037 61.5778 96.3752 59.5777 94.8708 58.0733L94.3165 57.519L102.533 49.3034ZM78.4815 52.9476C79.1004 52.3286 79.9236 51.9876 80.7989 51.9876C81.6743 51.9876 82.4974 52.3286 83.1164 52.9476L91.557 61.388C92.176 62.007 92.517 62.8301 92.517 63.7055C92.517 64.5808 92.176 65.4039 91.557 66.0232C90.938 66.6421 90.1149 66.9831 89.2395 66.9831C88.3644 66.9831 87.5418 66.6424 86.9228 66.0239C86.9226 66.0236 86.9223 66.0234 86.9221 66.0229L78.4815 57.5825C77.8625 56.9636 77.5215 56.1405 77.5215 55.2651C77.5215 54.3897 77.8623 53.5668 78.4815 52.9476ZM70.5316 60.8972C71.1708 60.2581 72.0098 59.9389 72.8493 59.9389C73.6886 59.9389 74.5281 60.2583 75.1668 60.8972L83.6072 69.3376C84.8852 70.6156 84.8849 72.695 83.6072 73.973C82.9882 74.592 82.1651 74.933 81.2897 74.933C80.4146 74.933 79.5919 74.5922 78.9729 73.9737C78.9727 73.9735 78.9725 73.9732 78.9722 73.9728L70.5319 65.5324C69.9127 64.9134 69.5719 64.0903 69.5719 63.2147C69.5716 62.3393 69.9127 61.5164 70.5316 60.8972ZM62.582 68.8471C63.201 68.2279 64.0241 67.8871 64.8995 67.8871C65.7751 67.8871 66.5982 68.2281 67.2172 68.8471L75.6575 77.2875C76.9356 78.5655 76.9356 80.6448 75.6575 81.9226C74.3795 83.2004 72.3002 83.2006 71.0222 81.9226L62.5818 73.4822C61.304 72.2044 61.304 70.1249 62.582 68.8471ZM58.0978 80.2623C58.7369 79.6232 59.5762 79.304 60.4155 79.304C61.2536 79.304 62.0922 79.623 62.7306 80.2602L67.7077 85.2373C68.3267 85.8563 68.6677 86.6794 68.6677 87.5548C68.6677 88.4301 68.3267 89.2533 67.7077 89.8725C67.0887 90.4917 66.2656 90.8324 65.39 90.8324C64.5153 90.8324 63.6927 90.4919 63.0737 89.8736L63.0726 89.8725L58.0978 84.8977C56.82 83.6195 56.82 81.5401 58.0978 80.2623ZM56.2402 100.02L61.4156 94.8442L78.1529 111.581L72.9775 116.757L56.2402 100.02ZM105.484 114.6C104.907 114.023 104.071 113.786 103.278 113.979C99.7309 114.833 95.9491 114.172 92.9023 112.165L91.6329 111.329C100.446 110.587 108.634 106.801 114.96 100.474L126.656 88.7782C127.662 91.2098 128.205 93.8087 128.255 96.4505L107.795 116.911L105.484 114.6Z" fill="url(#paint0_linear)"/>
<path d="M125.947 115.738C125.511 116.174 125.26 116.776 125.26 117.395C125.26 118.011 125.511 118.616 125.947 119.052C126.383 119.488 126.988 119.739 127.604 119.739C128.223 119.739 128.825 119.488 129.261 119.052C129.697 118.616 129.948 118.011 129.948 117.395C129.948 116.776 129.697 116.174 129.261 115.738C128.825 115.302 128.22 115.051 127.604 115.051C126.988 115.051 126.383 115.302 125.947 115.738Z" fill="url(#paint1_linear)"/>
<path d="M46.835 50.1482C47.2927 50.6059 47.8924 50.8346 48.4922 50.8346C49.092 50.8346 49.6919 50.6059 50.1494 50.1482C51.0646 49.2329 51.0646 47.7489 50.1494 46.8335L39.1174 35.8014C38.2022 34.8862 36.7181 34.8862 35.8027 35.8014C34.8872 36.7166 34.8875 38.2007 35.8027 39.1161L46.835 50.1482Z" fill="#FCD690"/>
<path d="M59.5943 43.7769C60.8887 43.7769 61.938 42.7277 61.938 41.4332V33.3437C61.938 32.0493 60.8887 31 59.5943 31C58.2998 31 57.2505 32.0493 57.2505 33.3437V41.4332C57.2505 42.7277 58.2998 43.7769 59.5943 43.7769Z" fill="#FCD690"/>
<path d="M33.345 61.9369H41.4345C42.729 61.9369 43.7782 60.8876 43.7782 59.5932C43.7782 58.2988 42.729 57.2495 41.4345 57.2495H33.345C32.0506 57.2495 31.0013 58.2988 31.0013 59.5932C31.0013 60.8876 32.0506 61.9369 33.345 61.9369Z" fill="#FCD690"/>
<path d="M133.508 50.8345C134.108 50.8345 134.708 50.6057 135.165 50.148L146.197 39.1159C147.113 38.2007 147.113 36.7167 146.197 35.8012C145.282 34.8858 143.798 34.886 142.883 35.8012L131.851 46.8333C130.936 47.7485 130.936 49.2325 131.851 50.148C132.309 50.6057 132.908 50.8345 133.508 50.8345Z" fill="#FCD690"/>
<path d="M122.406 43.7769C123.7 43.7769 124.749 42.7277 124.749 41.4332V33.3437C124.749 32.0493 123.7 31 122.406 31C121.111 31 120.062 32.0493 120.062 33.3437V41.4332C120.062 42.7277 121.111 43.7769 122.406 43.7769Z" fill="#FCD690"/>
<path d="M138.222 59.5932C138.222 60.8876 139.272 61.9369 140.566 61.9369H148.655C149.95 61.9369 150.999 60.8876 150.999 59.5932C150.999 58.2988 149.95 57.2495 148.655 57.2495H140.566C139.272 57.2495 138.222 58.2988 138.222 59.5932Z" fill="#FCD690"/>
</g>
<defs>
<linearGradient id="paint0_linear" x1="37.0547" y1="43.656" x2="92.318" y2="174.821" gradientUnits="userSpaceOnUse">
<stop stop-color="#2F80ED"/>
<stop offset="1" stop-color="#4D55F0"/>
</linearGradient>
<linearGradient id="paint1_linear" x1="125.495" y1="115.051" x2="128.094" y2="120.572" gradientUnits="userSpaceOnUse">
<stop stop-color="#F2C94C"/>
<stop offset="1" stop-color="#F5B67A"/>
</linearGradient>
<clipPath id="clip0">
<rect width="120" height="120" fill="white" transform="translate(31 31)"/>
</clipPath>
</defs>
</svg>
