<svg width="182" height="182" viewBox="0 0 182 182" fill="none" xmlns="http://www.w3.org/2000/svg">
<circle cx="91" cy="91" r="91" fill="#F2F2F2"/>
<g clip-path="url(#clip0)">
<path d="M156.27 52.668C151.456 52.668 147.539 56.5845 147.539 61.3984C147.539 63.9111 148.607 66.1775 150.312 67.772L134.275 78.7561L129.176 63.4588C132.116 62.0524 134.152 59.0488 134.152 55.5781C134.152 50.7641 130.236 46.8477 125.422 46.8477C120.608 46.8477 116.691 50.7641 116.691 55.5781C116.691 58.0663 117.74 60.3132 119.415 61.9048L103.521 72.5001L94.8489 57.3231C97.4646 55.8136 99.2305 52.989 99.2305 49.7578C99.2305 44.9438 95.314 41.0273 90.5 41.0273C85.686 41.0273 81.7695 44.9438 81.7695 49.7578C81.7695 52.989 83.5354 55.8136 86.1511 57.3231L77.4785 72.5001L61.5847 61.9048C63.2606 60.313 64.3086 58.0663 64.3086 55.5781C64.3086 50.7641 60.3921 46.8477 55.5781 46.8477C50.7641 46.8477 46.8477 50.7641 46.8477 55.5781C46.8477 59.0488 48.8836 62.0524 51.8237 63.4588L46.7248 78.7561L30.6881 67.772C32.3926 66.1775 33.4609 63.9111 33.4609 61.3984C33.4609 56.5845 29.5444 52.668 24.7305 52.668C19.9165 52.668 16 56.5845 16 61.3984C16 65.3336 18.6177 68.6677 22.2027 69.7544L25.5779 90.0105C23.253 92.6142 21.8203 97.1151 21.8203 102.141C21.8203 110.139 25.3105 116.239 30.0223 116.666L33.5005 137.541C33.7342 138.944 34.9483 139.973 36.3711 139.973H77.4043C79.0116 139.973 80.3145 138.67 80.3145 137.062C80.3145 135.455 79.0116 134.152 77.4043 134.152H38.8366L37.8666 128.332H143.133L142.163 134.152H103.596C101.988 134.152 100.686 135.455 100.686 137.062C100.686 138.67 101.988 139.973 103.596 139.973H144.629C146.052 139.973 147.266 138.944 147.499 137.541L150.978 116.666C155.69 116.239 159.18 110.139 159.18 102.141C159.18 97.1151 157.747 92.6142 155.422 90.0105L158.797 69.7544C162.382 68.6677 165 65.3336 165 61.3984C165 56.5845 161.084 52.668 156.27 52.668ZM125.422 52.668C127.027 52.668 128.332 53.9735 128.332 55.5781C128.332 57.1828 127.027 58.4883 125.422 58.4883C123.817 58.4883 122.512 57.1828 122.512 55.5781C122.512 53.9735 123.817 52.668 125.422 52.668ZM123.866 65.9333L129.28 82.1772L114.742 92.1352L106.416 77.5658L123.866 65.9333ZM90.5 46.8477C92.1047 46.8477 93.4102 48.1532 93.4102 49.7578C93.4102 51.3625 92.1047 52.668 90.5 52.668C88.8953 52.668 87.5898 51.3625 87.5898 49.7578C87.5898 48.1532 88.8953 46.8477 90.5 46.8477ZM55.5781 52.668C57.1828 52.668 58.4883 53.9735 58.4883 55.5781C58.4883 57.1828 57.1828 58.4883 55.5781 58.4883C53.9735 58.4883 52.668 57.1828 52.668 55.5781C52.668 53.9735 53.9735 52.668 55.5781 52.668ZM57.1342 65.9333L74.5838 77.5658L66.2584 92.1352L51.7195 82.177L57.1342 65.9333ZM24.7305 58.4883C26.3351 58.4883 27.6406 59.7938 27.6406 61.3984C27.6406 63.0031 26.3351 64.3086 24.7305 64.3086C23.1258 64.3086 21.8203 63.0031 21.8203 61.3984C21.8203 59.7938 23.1258 58.4883 24.7305 58.4883ZM27.6406 102.141C27.6406 97.4326 29.2066 94.2657 30.3209 93.5164C31.212 92.9306 33.4609 96.6657 33.4609 102.141C33.4609 106.854 31.8912 110.023 30.7845 110.762C29.7502 111.448 27.6406 107.187 27.6406 102.141ZM36.897 122.512L35.5237 114.271C37.8486 111.667 39.2812 107.166 39.2812 102.141C39.2812 94.1418 35.7911 88.0418 31.0793 87.6157L28.7241 73.4814L65.5739 98.7212C66.9758 99.6813 68.9017 99.2404 69.7451 97.7637L90.5 61.4435L111.254 97.764C112.101 99.2459 114.028 99.6783 115.425 98.7215L152.275 73.482L149.92 87.616C145.209 88.0418 141.719 94.1418 141.719 102.141C141.719 107.163 143.15 111.661 145.477 114.269L144.103 122.512H36.897ZM150.449 110.871C149.631 110.871 147.539 107.491 147.539 102.141C147.539 96.8828 149.596 93.4102 150.449 93.4102C151.23 93.4102 153.359 96.7033 153.359 102.141C153.359 107.398 151.302 110.871 150.449 110.871ZM156.27 64.3086C154.665 64.3086 153.359 63.0031 153.359 61.3984C153.359 59.7938 154.665 58.4883 156.27 58.4883C157.874 58.4883 159.18 59.7938 159.18 61.3984C159.18 63.0031 157.874 64.3086 156.27 64.3086Z" fill="url(#paint0_linear)"/>
<path d="M90.5 87.5898C85.5228 87.5898 81.7695 93.8452 81.7695 102.141C81.7695 110.436 85.5228 116.691 90.5 116.691C95.4772 116.691 99.2305 110.436 99.2305 102.141C99.2305 93.8452 95.4772 87.5898 90.5 87.5898ZM90.5 110.871C89.6188 110.871 87.5898 107.331 87.5898 102.141C87.5898 96.8828 89.6467 93.4102 90.5 93.4102C91.3812 93.4102 93.4102 96.9504 93.4102 102.141C93.4102 107.398 91.3533 110.871 90.5 110.871Z" fill="#FCD690"/>
<path d="M90.5 139.973C92.1072 139.973 93.4102 138.67 93.4102 137.062C93.4102 135.455 92.1072 134.152 90.5 134.152C88.8928 134.152 87.5898 135.455 87.5898 137.062C87.5898 138.67 88.8928 139.973 90.5 139.973Z" fill="#FCD690"/>
</g>
<defs>
<linearGradient id="paint0_linear" x1="23.45" y1="41.0273" x2="63.9935" y2="170.717" gradientUnits="userSpaceOnUse">
<stop stop-color="#2F80ED"/>
<stop offset="1" stop-color="#4D55F0"/>
</linearGradient>
<clipPath id="clip0">
<rect width="149" height="149" fill="white" transform="translate(16 16)"/>
</clipPath>
</defs>
</svg>
